<?xml version="1.0" encoding="utf-8"?>
<!-- Generator: Adobe Illustrator 15.0.2, SVG Export Plug-In . SVG Version: 6.00 Build 0)  -->
<!DOCTYPE svg PUBLIC "-//W3C//DTD SVG 1.1//EN" "http://www.w3.org/Graphics/SVG/1.1/DTD/svg11.dtd">
<svg version="1.1" id="Layer_1" xmlns="http://www.w3.org/2000/svg" xmlns:xlink="http://www.w3.org/1999/xlink" x="0px" y="0px"
	 width="351.273px" height="461.059px" viewBox="0 0 351.273 461.059" enable-background="new 0 0 351.273 461.059"
	 xml:space="preserve">
<g>
	<g>
		<path fill="#5D0425" d="M242.339,295.118c-9.28-9.747-20.421-17.596-32.821-22.935c-11.93-5.135-25.047-7.951-38.808-7.899
			c-13.76,0.053-26.852,2.966-38.74,8.195c-12.358,5.428-23.44,13.367-32.646,23.178l-2.439-2.432
			c9.514-10.145,20.973-18.347,33.758-23.965c12.314-5.414,25.85-8.428,40.053-8.484c14.205-0.054,27.764,2.856,40.124,8.181
			c12.831,5.523,24.349,13.64,33.94,23.712L242.339,295.118L242.339,295.118z"/>
		<path fill="#5D0425" d="M212.88,323.309c-5.402-6.034-12.001-10.911-19.399-14.242c-7.117-3.197-14.982-4.958-23.251-4.927
			c-8.275,0.032-16.135,1.856-23.23,5.114c-7.371,3.383-13.931,8.32-19.292,14.408l-2.52-2.363
			c5.667-6.435,12.614-11.658,20.431-15.247c7.522-3.454,15.843-5.385,24.598-5.417c8.745-0.036,17.075,1.832,24.62,5.22
			c7.834,3.524,14.814,8.687,20.533,15.073L212.88,323.309L212.88,323.309z"/>
		<path fill-rule="evenodd" clip-rule="evenodd" fill="#5D0425" d="M122.941,283.701l7.961,9.441
			c4.649,5.516,2.621,10.672-1.789,14.625c-4.667,4.186-9.93,4.961-14.271-0.19l-7.979-9.465l4.008-3.594l8.063,9.568
			c2.017,2.389,4.903,2.332,7.211,0.261c2.123-1.902,3.115-4.804,0.607-7.783l-7.817-9.271L122.941,283.701L122.941,283.701z"/>
		<polygon fill-rule="evenodd" clip-rule="evenodd" fill="#5D0425" points="164.857,294.3 148.699,297.763 143.917,276.252 
			159.851,272.836 160.727,276.782 150.254,279.026 151.257,283.539 161.248,281.394 162.125,285.337 152.132,287.478 
			153.283,292.649 163.981,290.358 164.857,294.3 		"/>
		<polygon fill-rule="evenodd" clip-rule="evenodd" fill="#5D0425" points="196.865,279.212 186.882,277.463 185.918,282.125 
			195.903,283.874 195.108,287.71 185.126,285.961 183.353,294.548 177.698,293.559 182.025,272.635 197.656,275.374 
			196.865,279.212 		"/>
		<path fill-rule="evenodd" clip-rule="evenodd" fill="#5D0425" d="M217.128,301.622L211.4,297.6l7.695-5.464L217.128,301.622
			L217.128,301.622z M224.773,289.431l-5.372-3.772l-20.298,13.73l4.912,3.448l3.924-2.78l8.322,5.845l-1.005,4.834l4.989,3.512
			L224.773,289.431L224.773,289.431z"/>
	</g>
	<g>
		<radialGradient id="SVGID_1_" cx="178.8726" cy="126.2539" r="123.1855" gradientUnits="userSpaceOnUse">
			<stop  offset="0.7636" style="stop-color:#EAA822"/>
			<stop  offset="1" style="stop-color:#CC7A29"/>
		</radialGradient>
		<circle fill="url(#SVGID_1_)" cx="178.873" cy="126.254" r="123.186"/>
		<linearGradient id="SVGID_2_" gradientUnits="userSpaceOnUse" x1="178.8726" y1="187.4565" x2="178.8726" y2="63.3053">
			<stop  offset="0" style="stop-color:#EAA822"/>
			<stop  offset="0.3939" style="stop-color:#F1C062"/>
		</linearGradient>
		<path fill="url(#SVGID_2_)" d="M178.872,4.424C115.429,4.424,64,58.753,64,125.775c0,2.736,0.095,5.45,0.263,8.142
			c23.857,42.649,66.263,71.028,114.609,71.028c48.347,0,90.752-28.379,114.61-71.028c0.168-2.692,0.263-5.406,0.263-8.142
			C293.745,58.753,242.315,4.424,178.872,4.424z"/>
		<g>
			<g>
				<radialGradient id="SVGID_3_" cx="180.6304" cy="122.6836" r="126.9583" gradientUnits="userSpaceOnUse">
					<stop  offset="0" style="stop-color:#A21D2E"/>
					<stop  offset="1" style="stop-color:#650B1A"/>
				</radialGradient>
				<path fill="url(#SVGID_3_)" d="M179.299,3.068c-22.073,0-42.788,5.807-60.71,15.971c5.534,9.918,16.581,32.309,25.674,66.865
					c12.691,48.227,33.421,107.032,75.727,147.646c0,0-44.421-75.727-44.421-170.491c0-22.959,2.363-42.905,5.938-59.962
					C180.772,3.083,180.039,3.068,179.299,3.068z"/>
				<radialGradient id="SVGID_4_" cx="180.6294" cy="122.6836" r="126.9596" gradientUnits="userSpaceOnUse">
					<stop  offset="0" style="stop-color:#A21D2E"/>
					<stop  offset="1" style="stop-color:#650B1A"/>
				</radialGradient>
				<path fill="url(#SVGID_4_)" d="M200.014,4.809c-1.239,6.521-3.768,18.824-7.946,34.981
					c-6.346,24.537-1.691,109.571,10.154,133.686c0,0-5.526-62.269,36.934-154.914C227.192,11.901,214.004,7.177,200.014,4.809z"/>
				<radialGradient id="SVGID_5_" cx="180.6304" cy="122.6821" r="126.9589" gradientUnits="userSpaceOnUse">
					<stop  offset="0" style="stop-color:#A21D2E"/>
					<stop  offset="1" style="stop-color:#650B1A"/>
				</radialGradient>
				<path fill="url(#SVGID_5_)" d="M174.54,249.439c-2.801-72.629-20.545-108.965-20.545-108.965
					c3.188,49.594-12.304,89.38-17.431,101.018C148.436,246.066,161.206,248.829,174.54,249.439z"/>
				<radialGradient id="SVGID_6_" cx="180.6304" cy="122.6807" r="126.9604" gradientUnits="userSpaceOnUse">
					<stop  offset="0" style="stop-color:#A21D2E"/>
					<stop  offset="1" style="stop-color:#650B1A"/>
				</radialGradient>
				<path fill="url(#SVGID_6_)" d="M185.121,249.419c11.679-0.59,22.92-2.835,33.498-6.497
					c-27.323-23.382-43.473-54.219-43.473-54.219C182.147,210.055,184.512,239.784,185.121,249.419z"/>
			</g>
			<path fill="#C96F5A" d="M149.275,84.584c-7-26.603-15.628-51.638-25.611-68.251c-1.712,0.869-3.41,1.762-5.075,2.706
				c5.534,9.918,16.581,32.309,25.674,66.865c12.184,46.297,31.787,102.331,70.761,142.671
				C169.995,163.869,156.989,113.897,149.275,84.584z"/>
			<path fill="#C96F5A" d="M197.992,34.71c3.422-15.4,4.536-24.832,4.899-29.349c-0.958-0.186-1.91-0.387-2.877-0.552
				c-1.239,6.521-3.768,18.824-7.946,34.981c-6.346,24.537-1.691,109.571,10.154,133.686c0,0-0.814-9.215,0.593-25.815
				C189.032,98.505,193.326,55.707,197.992,34.71z"/>
			<path fill="#C96F5A" d="M159.102,153.8c-2.938-8.873-5.107-13.326-5.107-13.326c3.188,49.594-12.304,89.38-17.431,101.018
				c0.207,0.078,0.417,0.146,0.624,0.225C145.613,229.525,159.794,201.772,159.102,153.8z"/>
			<path fill="#C96F5A" d="M185.121,249.419c1.538-0.078,3.067-0.188,4.59-0.322c-0.939-19.742-3.83-36.154-6.099-46.481
				c-5.508-8.272-8.466-13.913-8.466-13.913C182.147,210.055,184.512,239.784,185.121,249.419z"/>
		</g>
		<g>
			<g>
				<path fill="#5D0425" d="M254.433,235.498c0.129,0.228,0.261,0.455,0.391,0.686c-0.511-0.08-0.951-0.018-1.325,0.191
					c-0.417,0.229-0.688,0.56-0.823,1.003c-0.136,0.444-0.095,0.868,0.124,1.282c0.216,0.41,0.547,0.678,0.995,0.798
					c0.447,0.122,0.888,0.063,1.316-0.173c0.222-0.121,0.39-0.266,0.508-0.417c0.065-0.081,0.131-0.177,0.19-0.285
					c0.063-0.107,0.119-0.232,0.175-0.368c0.133,0.233,0.268,0.466,0.398,0.699c-0.253,0.392-0.579,0.7-0.978,0.922
					c-0.604,0.335-1.225,0.419-1.856,0.257c-0.635-0.17-1.09-0.534-1.379-1.091c-0.258-0.498-0.313-1.034-0.177-1.606
					c0.175-0.701,0.582-1.228,1.245-1.592C253.594,235.602,253.992,235.503,254.433,235.498z"/>
				<path fill="#5D0425" d="M253.4,241.473c-2.091-0.259-3.353-2.151-2.963-4.112c0.395-1.961,2.216-3.306,4.209-3.104
					c1.988,0.203,3.482,1.918,3.186,3.937C257.539,240.213,255.486,241.734,253.4,241.473L253.4,241.473z M254.571,234.818
					c-1.685-0.173-3.238,0.972-3.563,2.63c-0.323,1.657,0.758,3.24,2.511,3.453c1.754,0.219,3.469-1.054,3.724-2.753
					C257.498,236.452,256.253,234.993,254.571,234.818L254.571,234.818z"/>
			</g>
			<g>
				<path fill="#5D0425" d="M264.132,233.585c0.111,0.151,0.222,0.307,0.334,0.461c-0.935,0.678-1.882,1.336-2.841,1.979
					c-0.084-0.116-0.14-0.243-0.167-0.384c-0.049-0.231-0.051-0.485-0.011-0.771c0.041-0.28,0.132-0.638,0.271-1.07
					c0.215-0.672,0.323-1.166,0.336-1.483c0.013-0.318-0.046-0.567-0.177-0.749c-0.137-0.191-0.321-0.303-0.559-0.334
					c-0.234-0.031-0.467,0.035-0.696,0.194c-0.242,0.17-0.388,0.375-0.438,0.616c-0.049,0.242,0.011,0.488,0.178,0.74
					c-0.185,0.103-0.373,0.204-0.562,0.303c-0.218-0.397-0.276-0.777-0.178-1.133c0.102-0.356,0.345-0.665,0.731-0.938
					c0.39-0.272,0.773-0.387,1.148-0.339c0.377,0.047,0.676,0.222,0.898,0.53c0.114,0.157,0.192,0.334,0.234,0.534
					c0.041,0.2,0.044,0.439,0.006,0.721c-0.036,0.279-0.134,0.699-0.301,1.256c-0.142,0.461-0.228,0.767-0.258,0.918
					c-0.027,0.147-0.041,0.287-0.04,0.414C262.749,234.572,263.442,234.081,264.132,233.585z"/>
				<path fill="#5D0425" d="M263.612,231.72c-0.34-0.46-0.56-0.868-0.668-1.221c-0.109-0.352-0.124-0.676-0.046-0.969
					c0.078-0.295,0.261-0.55,0.548-0.769c0.214-0.162,0.43-0.263,0.651-0.304c0.224-0.042,0.446-0.024,0.673,0.048
					c0.224,0.074,0.453,0.199,0.688,0.372c0.232,0.177,0.498,0.451,0.797,0.826c0.352,0.445,0.587,0.843,0.703,1.193
					c0.119,0.349,0.14,0.678,0.059,0.982c-0.082,0.302-0.275,0.573-0.581,0.806c-0.4,0.305-0.818,0.408-1.246,0.313
					C264.674,232.879,264.148,232.45,263.612,231.72z M264.13,231.337c0.475,0.635,0.867,1.001,1.184,1.092
					c0.316,0.089,0.594,0.044,0.828-0.132c0.233-0.18,0.349-0.435,0.344-0.765c-0.005-0.332-0.249-0.806-0.736-1.431
					c-0.491-0.626-0.891-0.983-1.203-1.072c-0.313-0.087-0.581-0.045-0.809,0.126c-0.224,0.169-0.334,0.397-0.33,0.683
					C263.416,230.202,263.655,230.701,264.13,231.337z"/>
				<path fill="#5D0425" d="M266.751,229.308c-0.356-0.445-0.596-0.843-0.719-1.189c-0.124-0.349-0.153-0.671-0.089-0.967
					c0.066-0.298,0.238-0.562,0.517-0.792c0.205-0.171,0.415-0.279,0.638-0.329c0.22-0.053,0.444-0.044,0.67,0.02
					c0.229,0.063,0.465,0.177,0.705,0.343c0.24,0.165,0.521,0.426,0.832,0.791c0.371,0.429,0.623,0.815,0.753,1.159
					c0.135,0.347,0.167,0.673,0.099,0.98c-0.065,0.307-0.248,0.583-0.541,0.829c-0.388,0.32-0.802,0.443-1.233,0.362
					C267.862,230.421,267.32,230.016,266.751,229.308z M267.252,228.903c0.501,0.617,0.911,0.963,1.229,1.04
					c0.321,0.077,0.596,0.021,0.82-0.165c0.228-0.188,0.331-0.448,0.313-0.779c-0.018-0.329-0.286-0.794-0.8-1.396
					c-0.515-0.605-0.931-0.944-1.247-1.021c-0.315-0.077-0.581-0.021-0.8,0.161c-0.218,0.18-0.316,0.41-0.3,0.696
					C266.492,227.8,266.753,228.288,267.252,228.903z"/>
				<path fill="#5D0425" d="M270.347,225.955c-0.252,0.104-0.481,0.135-0.686,0.09c-0.204-0.042-0.381-0.152-0.534-0.326
					c-0.233-0.263-0.33-0.572-0.294-0.925c0.036-0.352,0.213-0.668,0.531-0.958c0.321-0.291,0.661-0.437,1.02-0.437
					c0.362,0,0.662,0.125,0.903,0.382c0.152,0.165,0.241,0.347,0.267,0.554c0.02,0.204-0.031,0.425-0.152,0.662
					c0.294-0.141,0.574-0.188,0.84-0.143c0.266,0.048,0.503,0.177,0.706,0.397c0.286,0.298,0.41,0.659,0.369,1.079
					c-0.037,0.42-0.247,0.806-0.63,1.152c-0.382,0.344-0.788,0.519-1.209,0.515c-0.424-0.003-0.773-0.166-1.052-0.484
					c-0.205-0.236-0.314-0.49-0.329-0.76C270.084,226.484,270.167,226.217,270.347,225.955z M270.917,227.086
					c0.11,0.127,0.252,0.222,0.423,0.284c0.168,0.059,0.345,0.067,0.531,0.019c0.184-0.051,0.347-0.141,0.494-0.271
					c0.225-0.206,0.348-0.444,0.371-0.709c0.021-0.27-0.063-0.507-0.255-0.714c-0.194-0.21-0.429-0.313-0.703-0.315
					c-0.274-0.001-0.521,0.1-0.744,0.302c-0.217,0.196-0.338,0.428-0.359,0.695C270.653,226.644,270.731,226.881,270.917,227.086z
					 M269.585,225.286c0.151,0.17,0.334,0.259,0.544,0.264c0.212,0.005,0.41-0.075,0.593-0.239c0.176-0.162,0.273-0.348,0.29-0.557
					c0.013-0.208-0.051-0.391-0.191-0.542c-0.147-0.162-0.33-0.243-0.545-0.246c-0.215-0.005-0.406,0.071-0.578,0.227
					c-0.173,0.156-0.267,0.338-0.286,0.55C269.393,224.953,269.451,225.135,269.585,225.286z"/>
				<path fill="#5D0425" d="M274.826,218.476c0.148-0.159,0.296-0.318,0.445-0.48c0.686,0.629,1.371,1.259,2.057,1.888
					c0.356,0.329,0.603,0.632,0.731,0.913c0.13,0.278,0.156,0.595,0.076,0.941c-0.08,0.348-0.293,0.706-0.644,1.069
					c-0.336,0.353-0.673,0.586-1.002,0.698c-0.328,0.113-0.644,0.11-0.946-0.006c-0.302-0.116-0.635-0.354-0.996-0.716
					c-0.657-0.658-1.314-1.317-1.972-1.975c0.154-0.153,0.307-0.309,0.461-0.464c0.663,0.653,1.324,1.304,1.986,1.958
					c0.297,0.295,0.546,0.481,0.747,0.562c0.2,0.08,0.409,0.086,0.629,0.015c0.221-0.073,0.433-0.214,0.638-0.425
					c0.348-0.365,0.517-0.703,0.509-1.004c-0.009-0.301-0.235-0.658-0.681-1.071C276.185,219.744,275.506,219.111,274.826,218.476z"
					/>
				<path fill="#5D0425" d="M279.61,220.4c-1.198-1.074-2.396-2.147-3.596-3.222c0.796-0.891,1.575-1.795,2.338-2.717
					c0.147,0.122,0.291,0.243,0.438,0.364c-0.625,0.756-1.265,1.504-1.916,2.239c0.371,0.326,0.741,0.653,1.111,0.979
					c0.618-0.701,1.227-1.409,1.822-2.129c0.147,0.121,0.293,0.242,0.437,0.363c-0.6,0.723-1.213,1.438-1.834,2.141
					c0.41,0.364,0.821,0.726,1.23,1.091c0.705-0.797,1.395-1.605,2.071-2.424c0.145,0.122,0.291,0.241,0.439,0.362
					C281.323,218.451,280.478,219.434,279.61,220.4z"/>
				<path fill="#5D0425" d="M282.778,216.679c-1.253-1.012-2.508-2.023-3.76-3.036c0.703-0.868,1.387-1.749,2.057-2.642
					c0.152,0.114,0.304,0.228,0.456,0.342c-0.542,0.724-1.094,1.438-1.656,2.143c0.391,0.311,0.783,0.622,1.171,0.932
					c0.495-0.621,0.983-1.249,1.462-1.882c0.15,0.114,0.301,0.229,0.453,0.343c-0.481,0.638-0.971,1.27-1.468,1.895
					c0.573,0.456,1.145,0.911,1.717,1.367C283.066,216.32,282.923,216.5,282.778,216.679z"/>
				<path fill="#5D0425" d="M284.896,213.959c-0.889-1.502-1.802-2.981-2.738-4.436c0.138-0.194,0.276-0.385,0.41-0.577
					c1.708,0.372,3.43,0.714,5.164,1.02c-0.146,0.217-0.296,0.435-0.444,0.653c-0.518-0.109-1.032-0.218-1.55-0.332
					c-0.409,0.589-0.823,1.176-1.247,1.756c0.283,0.44,0.564,0.882,0.843,1.326C285.187,213.567,285.042,213.762,284.896,213.959z
					 M284.185,211.58c0.341-0.469,0.675-0.941,1.007-1.416c-0.469-0.109-0.934-0.22-1.399-0.334c-0.425-0.103-0.767-0.2-1.024-0.289
					c0.215,0.23,0.415,0.483,0.594,0.757C283.639,210.723,283.914,211.151,284.185,211.58z"/>
				<path fill="#5D0425" d="M289.573,207.12c-1.206-0.749-2.413-1.5-3.617-2.25c-0.293,0.468-0.587,0.931-0.886,1.393
					c-0.159-0.103-0.319-0.206-0.478-0.309c0.713-1.104,1.406-2.227,2.074-3.364c0.163,0.096,0.329,0.193,0.491,0.29
					c-0.278,0.478-0.564,0.953-0.853,1.423c1.209,0.741,2.421,1.485,3.632,2.227C289.817,206.727,289.693,206.925,289.573,207.12z"
					/>
				<path fill="#5D0425" d="M291.18,204.44c-1.394-0.804-2.788-1.611-4.184-2.416c0.166-0.287,0.332-0.577,0.492-0.865
					c1.189,0.216,2.381,0.417,3.578,0.604c0.334,0.053,0.584,0.094,0.747,0.123c-0.126-0.135-0.31-0.34-0.55-0.611
					c-0.789-0.897-1.589-1.781-2.397-2.654c0.138-0.264,0.274-0.529,0.408-0.793c1.436,0.731,2.87,1.461,4.305,2.192
					c-0.101,0.2-0.205,0.399-0.307,0.6c-1.196-0.621-2.394-1.241-3.589-1.862c0.971,1.055,1.929,2.128,2.872,3.216
					c-0.101,0.186-0.2,0.371-0.3,0.554c-1.445-0.212-2.886-0.448-4.318-0.704c1.193,0.678,2.385,1.356,3.576,2.033
					C291.403,204.052,291.292,204.247,291.18,204.44z"/>
			</g>
		</g>
	</g>
	<g>
		<polygon fill="#5D0425" points="51.473,351.43 51.473,339.728 17.791,339.728 17.791,339.777 17.791,396.729 51.473,396.729 
			51.473,385.027 29.354,385.027 29.354,374.079 47.585,374.079 47.585,362.377 29.354,362.377 29.354,351.43 		"/>
		<polygon fill="#5D0425" points="116.474,423.513 116.474,415.003 91.979,415.003 91.979,415.039 91.979,456.458 116.474,456.458 
			116.474,447.949 100.388,447.949 100.388,439.986 113.648,439.986 113.648,431.475 100.388,431.475 100.388,423.513 		"/>
		<polygon fill="#5D0425" points="66.059,415.003 57.649,415.003 57.649,415.039 57.649,456.458 82.144,456.458 82.144,447.949 
			66.059,447.949 		"/>
		<polygon fill="#5D0425" points="294.278,423.513 294.278,415.003 269.783,415.003 269.783,415.039 269.783,456.458 
			294.278,456.458 294.278,447.949 278.191,447.949 278.191,439.986 291.452,439.986 291.452,431.475 278.191,431.475 
			278.191,423.513 		"/>
		<path fill="#5D0425" d="M102.247,339.624v34.057c0,7.143-5.811,12.955-12.955,12.955c-7.143,0-12.955-5.813-12.955-12.955v-34.057
			H64.678v34.057c0,13.594,11.021,24.614,24.614,24.614c13.594,0,24.614-11.021,24.614-24.614v-34.057H102.247z"/>
		<path fill="#5D0425" d="M249.941,415.003v25.567c0,5.362-4.363,9.726-9.727,9.726c-5.362,0-9.726-4.363-9.726-9.726v-25.567
			h-8.753v25.567c0,10.205,8.273,18.479,18.479,18.479c10.206,0,18.479-8.273,18.479-18.479v-25.567H249.941z"/>
		<path fill="#5D0425" d="M160.952,396.729h15.545l-20.313-24.211c7.174-2.244,12.347-8.53,12.347-15.949
			c0-9.301-8.119-16.841-18.136-16.841h-21.034v57.001h11.659V373.41h0.365L160.952,396.729z M156.872,357.703
			c0,3.887-2.373,8.96-12.629,8.96h-3.222v-15.276h9.375C154.93,351.387,156.872,354.895,156.872,357.703z"/>
		<path fill="#5D0425" d="M206.965,337.407c-15.383,0-27.853,13.631-27.853,30.443c0,16.813,12.47,30.444,27.853,30.444
			c15.382,0,27.853-13.631,27.853-30.444C234.818,351.038,222.347,337.407,206.965,337.407z M206.965,386.636
			c-8.93,0-16.193-8.428-16.193-18.785s7.264-18.784,16.193-18.784c8.929,0,16.193,8.427,16.193,18.784
			S215.894,386.636,206.965,386.636z"/>
		<path fill="#5D0425" d="M267.959,339.728h-12.955v0.001l-6.785-0.001v57.001h11.659v-45.342h8.081
			c3.571,0,6.478,2.906,6.478,6.478s-2.906,6.478-6.478,6.478h-4.178v11.659h4.178c10.018,0,18.137-8.12,18.137-18.137
			C286.096,347.847,277.977,339.728,267.959,339.728z"/>
		<polygon fill="#5D0425" points="328.723,396.729 340.755,396.729 312.256,338.432 283.754,396.729 295.789,396.729 
			300.899,386.274 319.319,386.274 315.095,377.206 305.333,377.206 312.256,363.046 		"/>
		<polygon fill="#5D0425" points="158.296,455.972 167.12,455.972 146.221,413.222 125.32,455.972 134.144,455.972 137.893,448.306 
			151.4,448.306 148.303,441.656 141.144,441.656 146.221,431.271 		"/>
		<path fill="#5D0425" d="M192.29,433.522v8.745h8.174v6.245c-1.82,1.01-3.868,1.605-6.055,1.605
			c-7.363,0-13.352-6.454-13.352-14.388s5.988-14.389,13.352-14.389c5.018,0,9.391,3,11.673,7.42l1.784-11.898
			c-3.784-2.788-8.425-4.451-13.457-4.451c-12.683,0-22.964,10.439-22.964,23.318s10.282,23.318,22.964,23.318
			c5.638,0,10.794-2.072,14.79-5.496h0.017v-20.03H192.29z"/>
	</g>
</g>
</svg>
